<svg xmlns="http://www.w3.org/2000/svg" xmlns:xlink="http://www.w3.org/1999/xlink" viewBox="0 0 225.75 103.85"><defs><symbol id="Flecha_3" data-name="Flecha 3" viewBox="0 0 23.18 21.53"><polygon points="0 21.53 8.92 10.76 0 0 23.18 10.76 0 21.53" style="fill:#c1302d"/><polygon points="0 21.53 8.92 10.76 0 0 23.18 10.76 0 21.53" style="fill:#211915"/></symbol></defs><title>yasuo</title><g id="svg"><ellipse cx="112.88" cy="54.74" rx="112.5" ry="45" style="fill:#888888;stroke:#000;stroke-miterlimit:10;stroke-width:0.75px"/><ellipse cx="112.88" cy="54.74" rx="87.5" ry="45" style="fill:#666666"/><ellipse cx="112.88" cy="55.74" rx="62.5" ry="45" style="fill:#888888"/><ellipse cx="112.87" cy="69.24" rx="22.5" ry="30" style="fill:#cc8e11"/><path d="M450,200.27l-35.36,42.36a50,50,0,1,1,70.71,0Z" transform="translate(-337.13 -140.26)" style="fill:#666666;stroke:#000;stroke-miterlimit:10;stroke-width:2px"/><circle cx="112.88" cy="59.74" r="30" style="fill:#888888"/><use width="23.18" height="21.53" transform="matrix(-0.04, 0.99, -2.32, 0.04, 138.3, 64.84)" xlink:href="#Flecha_3"/><path d="M429.72,222.09c11.65,11.38,30.11,11.34,41.28-.09" transform="translate(-337.13 -140.26)" style="fill:none;stroke:#000;stroke-miterlimit:10;stroke-width:2px"/><path d="M267.44,77.73" transform="translate(-337.13 -140.26)" style="fill:none;stroke:#000;stroke-miterlimit:10;stroke-width:2px"/><path d="M552.63,166.44c-62.19-3.74-125.31-16.5-187.66-21.39-5.51-.43-10.85-.73-10.85-.73-5.36-.33-10.08-.58-14-.76" transform="translate(-337.13 -140.26)" style="fill:none;stroke:#999;stroke-miterlimit:10;stroke-width:4px"/><path d="M504.48,162.25c-44.73-5.19-89.19-12.72-134.08-16.55-10.08-.86-20.19-1.46-30.3-1.94" transform="translate(-337.13 -140.26)" style="fill:none;stroke:#000;stroke-miterlimit:10;stroke-width:7px"/><path d="M502.07,162.24c-.31,3.31.52,6.11,1.87,6.25s2.69-2.43,3-5.74-.52-6.11-1.87-6.25S502.38,158.93,502.07,162.24Z" transform="translate(-337.13 -140.26)" style="fill:#999"/></g></svg>