<?xml version="1.0" encoding="utf-8"?>
<!-- Generator: Adobe Illustrator 21.1.0, SVG Export Plug-In . SVG Version: 6.00 Build 0)  -->
<svg version="1.1" id="Capa_1" xmlns="http://www.w3.org/2000/svg" xmlns:xlink="http://www.w3.org/1999/xlink" x="0px" y="0px"
	 viewBox="0 0 225.8 103.8" style="enable-background:new 0 0 225.8 103.8;" xml:space="preserve">
<style type="text/css">
	.st0{fill:#C1302D;}
	.st1{fill:#211915;}
	.st2{fill:#888888;stroke:#000000;stroke-width:0.75;stroke-miterlimit:10;}
	.st3{fill:#666666;}
	.st4{fill:#888888;}
	.st5{fill:#CC8E11;}
	.st6{fill:#666666;stroke:#000000;stroke-width:2;stroke-miterlimit:10;}
	.st7{fill:none;stroke:#000000;stroke-width:2;stroke-miterlimit:10;}
	.st8{fill:none;stroke:#999999;stroke-width:4;stroke-miterlimit:10;}
	.st9{fill:none;stroke:#000000;stroke-width:7;stroke-miterlimit:10;}
	.st10{fill:#999999;}
</style>
<symbol  id="Flecha_3" viewBox="-11.6 -10.8 23.2 21.5">
	<polygon class="st0" points="-11.6,10.8 -2.7,0 -11.6,-10.8 11.6,0 	"/>
	<polygon class="st1" points="-11.6,10.8 -2.7,0 -11.6,-10.8 11.6,0 	"/>
</symbol>
<title>yasuo</title>
<g id="svg">
	<ellipse class="st2" cx="112.9" cy="54.7" rx="112.5" ry="45"/>
	<ellipse class="st3" cx="112.9" cy="54.7" rx="87.5" ry="45"/>
	<ellipse class="st4" cx="112.9" cy="55.7" rx="62.5" ry="45"/>
	<ellipse class="st5" cx="112.9" cy="69.2" rx="22.5" ry="30"/>
	<path class="st6" d="M112.9,60l-35.4,42.4C58,82.8,58,51.2,77.5,31.7c19.5-19.5,51.2-19.5,70.7,0s19.5,51.2,0,70.7c0,0,0,0,0,0
		L112.9,60z"/>
	<circle class="st4" cx="112.9" cy="59.7" r="30"/>
	
		<use xlink:href="#Flecha_3"  width="23.2" height="21.5" x="-11.6" y="-10.8" transform="matrix(-4.000000e-02 0.99 -2.32 4.000000e-02 112.8616 76.7447)" style="overflow:visible;"/>
	<path class="st7" d="M92.6,81.8c11.6,11.4,30.1,11.3,41.3-0.1"/>
	<path class="st7" d="M-69.7-62.5"/>
	<path class="st8" d="M215.5,26.2C153.3,22.4,90.2,9.7,27.8,4.8C22.3,4.4,17,4.1,17,4.1C11.6,3.7,6.9,3.5,3,3.3"/>
	<path class="st9" d="M167.4,22C122.6,16.8,78.2,9.3,33.3,5.4C23.2,4.6,13.1,4,3,3.5"/>
	<path class="st10" d="M164.9,22c-0.3,3.3,0.5,6.1,1.9,6.2s2.7-2.4,3-5.7s-0.5-6.1-1.9-6.2S165.2,18.7,164.9,22z"/>
</g>
</svg>
